<svg width="28" height="28" viewBox="0 0 28 28" fill="none" xmlns="http://www.w3.org/2000/svg">
<g clip-path="url(#clip0_6_8)">
<rect width="28" height="28" rx="6" fill="#1E1E1E"/>
<path d="M20.7411 5.51786C20.7768 5.58929 20.7946 5.83929 20.7946 6.26786C20.8125 6.69643 20.8125 7.21429 20.7946 7.82143C20.7946 8.42857 20.7768 9.08036 20.7411 9.77679C20.7054 10.4554 20.6607 11.0982 20.6071 11.7054C20.5714 12.0446 20.5089 12.5536 20.4196 13.2321C20.3482 13.9107 20.2589 14.6607 20.1518 15.4821C20.0446 16.3036 19.9286 17.1518 19.8036 18.0268C19.6964 18.8839 19.5893 19.6786 19.4821 20.4107C19.375 21.125 19.2768 21.7232 19.1875 22.2054C19.1161 22.6875 19.0625 22.9464 19.0268 22.9821C18.9554 23.0357 18.8393 23.1696 18.6786 23.3839C18.5179 23.5804 18.3393 23.7857 18.1429 24C17.9643 24.1964 17.7946 24.3571 17.6339 24.4821C17.4732 24.6071 17.3661 24.625 17.3125 24.5357C17.2768 24.3571 17.2589 23.8036 17.2589 22.875C17.2589 22.4821 17.2589 21.9911 17.2589 21.4018C17.2768 20.7946 17.2946 20.0625 17.3125 19.2054C17.3482 18.3482 17.3929 17.3482 17.4464 16.2054C17.5 15.0625 17.5625 13.7411 17.6339 12.2411C17.2768 13.4554 16.9554 14.5268 16.6696 15.4554C16.4018 16.3839 16.1607 17.1964 15.9464 17.8929C15.75 18.5714 15.5804 19.1518 15.4375 19.6339C15.2946 20.0982 15.1696 20.4821 15.0625 20.7857C14.8304 21.5 14.6786 21.9196 14.6071 22.0446C14.5357 22.0625 14.4196 22.0089 14.2589 21.8839C14.1161 21.7589 13.9464 21.5804 13.75 21.3482C13.5714 21.0982 13.3839 20.8036 13.1875 20.4643C13.0089 20.125 12.8571 19.75 12.7321 19.3393C12.6071 18.9643 12.4464 18.4643 12.25 17.8393C12.0714 17.3036 11.8393 16.6071 11.5536 15.75C11.2679 14.875 10.9196 13.7857 10.5089 12.4821C10.6161 13.9464 10.7054 15.2321 10.7768 16.3393C10.8482 17.4464 10.9018 18.4107 10.9375 19.2321C10.9911 20.0536 11.0268 20.75 11.0446 21.3214C11.0804 21.875 11.0982 22.3393 11.0982 22.7143C11.1161 23.5714 11.0893 24.0625 11.0179 24.1875C10.8393 24.1875 10.6429 24.1071 10.4286 23.9464C10.2321 23.7679 10.0357 23.5625 9.83929 23.3304C9.66071 23.0804 9.5 22.8393 9.35714 22.6071C9.23214 22.375 9.16071 22.2054 9.14286 22.0982C9.125 22.0268 9.07143 21.6964 8.98214 21.1071C8.89286 20.5179 8.78571 19.7679 8.66071 18.8571C8.55357 17.9286 8.42857 16.8929 8.28571 15.75C8.16071 14.5893 8.03571 13.4107 7.91071 12.2143C7.80357 11.0179 7.71429 9.85714 7.64286 8.73214C7.57143 7.58929 7.53571 6.57143 7.53571 5.67857C7.53571 5.53572 7.71429 5.34822 8.07143 5.11607C8.42857 4.86607 8.83036 4.63393 9.27679 4.41964C9.74107 4.1875 10.1696 3.99107 10.5625 3.83036C10.9554 3.65179 11.1964 3.5625 11.2857 3.5625C11.3571 3.5625 11.4286 3.76786 11.5 4.17857C11.5893 4.58929 11.6875 5.10714 11.7946 5.73214C11.9018 6.35714 12.0179 7.05357 12.1429 7.82143C12.2679 8.58929 12.4107 9.32143 12.5714 10.0179C12.6964 10.7321 12.8482 11.4732 13.0268 12.2411C13.1696 12.9018 13.3304 13.6339 13.5089 14.4375C13.7054 15.2232 13.9196 15.9911 14.1518 16.7411C14.4018 15.6518 14.625 14.6696 14.8214 13.7946C15.0357 12.9018 15.2232 12.1429 15.3839 11.5179C15.5804 10.7857 15.75 10.1339 15.8929 9.5625C16.2143 8.16964 16.5268 7.07143 16.8304 6.26786C17.1518 5.46429 17.3571 4.99107 17.4464 4.84822C17.5 4.77679 17.6875 4.75893 18.0089 4.79464C18.3482 4.83036 18.7143 4.89286 19.1071 4.98214C19.5 5.05357 19.8571 5.14286 20.1786 5.25C20.5179 5.35714 20.7054 5.44643 20.7411 5.51786Z" fill="white"/>
</g>
<defs>
<clipPath id="clip0_6_8">
<rect width="28" height="28" rx="6" fill="white"/>
</clipPath>
</defs>
</svg>
